<mxGraphModel dx="770" dy="1202" grid="1" gridSize="10" guides="1" tooltips="1" connect="1" arrows="1" fold="1" page="1" pageScale="1" pageWidth="1654" pageHeight="1169" math="0" shadow="0">
  <root>
    <mxCell id="0" />
    <mxCell id="1" parent="0" />
    <mxCell id="Xxeb_w5k-0lQKxWD1VdJ-54" value="" style="rounded=1;whiteSpace=wrap;html=1;absoluteArcSize=1;arcSize=14;strokeWidth=2;fontSize=10;align=center;verticalAlign=middle;strokeColor=#666666;gradientDirection=east;fillColor=#E6E6E6;opacity=80;" parent="1" vertex="1">
      <mxGeometry x="210" y="155" width="580" height="520" as="geometry" />
    </mxCell>
    <mxCell id="Xxeb_w5k-0lQKxWD1VdJ-50" value="" style="rounded=1;whiteSpace=wrap;html=1;absoluteArcSize=1;arcSize=14;strokeWidth=2;fontSize=10;fillColor=#ffffff;align=center;verticalAlign=middle;" parent="1" vertex="1">
      <mxGeometry x="150" y="240" width="580" height="520" as="geometry" />
    </mxCell>
    <mxCell id="Xxeb_w5k-0lQKxWD1VdJ-58" style="edgeStyle=elbowEdgeStyle;rounded=0;orthogonalLoop=1;jettySize=auto;html=1;exitX=1.011;exitY=0.233;exitDx=0;exitDy=0;exitPerimeter=0;entryX=0.25;entryY=0;entryDx=0;entryDy=0;fontSize=10;startArrow=oval;startFill=1;endArrow=blockThin;endFill=1;fillColor=#f8cecc;elbow=vertical;strokeColor=#FF9933;" parent="1" source="YOsguraXcIjrAALGB2yu-47" target="YOsguraXcIjrAALGB2yu-50" edge="1">
      <mxGeometry relative="1" as="geometry">
        <mxPoint x="400" y="295" as="sourcePoint" />
        <mxPoint x="470" y="345" as="targetPoint" />
        <Array as="points">
          <mxPoint x="460" y="266" />
        </Array>
      </mxGeometry>
    </mxCell>
    <mxCell id="Xxeb_w5k-0lQKxWD1VdJ-47" style="edgeStyle=elbowEdgeStyle;rounded=0;orthogonalLoop=1;jettySize=auto;html=1;fontSize=10;startArrow=blockThin;startFill=1;endArrow=oval;endFill=1;fillColor=#ffffff;exitX=0.5;exitY=0;exitDx=0;exitDy=0;strokeColor=#808080;" parent="1" source="Xxeb_w5k-0lQKxWD1VdJ-44" edge="1">
      <mxGeometry relative="1" as="geometry">
        <mxPoint x="280" y="415" as="targetPoint" />
        <Array as="points">
          <mxPoint x="215" y="430" />
        </Array>
      </mxGeometry>
    </mxCell>
    <mxCell id="Xxeb_w5k-0lQKxWD1VdJ-46" style="edgeStyle=none;rounded=0;orthogonalLoop=1;jettySize=auto;html=1;fontSize=10;startArrow=blockThin;startFill=1;endArrow=oval;endFill=1;fillColor=#ffffff;strokeWidth=2;strokeColor=#009900;" parent="1" source="Xxeb_w5k-0lQKxWD1VdJ-31" edge="1">
      <mxGeometry relative="1" as="geometry">
        <mxPoint x="300" y="520" as="targetPoint" />
      </mxGeometry>
    </mxCell>
    <mxCell id="Xxeb_w5k-0lQKxWD1VdJ-6" style="edgeStyle=none;rounded=0;orthogonalLoop=1;jettySize=auto;html=1;exitX=0.5;exitY=1;exitDx=0;exitDy=0;entryX=0.5;entryY=0;entryDx=0;entryDy=0;fontSize=10;startArrow=oval;startFill=1;endArrow=blockThin;endFill=1;fillColor=#ffffff;strokeColor=#FF9933;" parent="1" source="YOsguraXcIjrAALGB2yu-1" target="YOsguraXcIjrAALGB2yu-66" edge="1">
      <mxGeometry relative="1" as="geometry" />
    </mxCell>
    <mxCell id="YOsguraXcIjrAALGB2yu-1" value="Immutable Data Store" style="shape=datastore;whiteSpace=wrap;html=1;fontSize=11;fillColor=#ffe6cc;strokeColor=#d79b00;fontStyle=1;spacing=0;spacingTop=-6;" parent="1" vertex="1">
      <mxGeometry x="637.34" y="410" width="60" height="60" as="geometry" />
    </mxCell>
    <mxCell id="Xxeb_w5k-0lQKxWD1VdJ-17" style="edgeStyle=elbowEdgeStyle;rounded=0;orthogonalLoop=1;jettySize=auto;html=1;exitX=1;exitY=0.5;exitDx=0;exitDy=0;exitPerimeter=0;entryX=0;entryY=0.25;entryDx=0;entryDy=0;fontSize=10;startArrow=blockThin;startFill=1;endArrow=blockThin;endFill=1;fillColor=#ffffff;strokeColor=#808080;" parent="1" source="YOsguraXcIjrAALGB2yu-47" target="YOsguraXcIjrAALGB2yu-50" edge="1">
      <mxGeometry relative="1" as="geometry" />
    </mxCell>
    <mxCell id="Xxeb_w5k-0lQKxWD1VdJ-49" style="edgeStyle=elbowEdgeStyle;rounded=0;orthogonalLoop=1;jettySize=auto;html=1;exitX=0.5;exitY=0;exitDx=0;exitDy=0;entryX=0;entryY=0.5;entryDx=0;entryDy=0;fontSize=10;startArrow=blockThin;startFill=1;endArrow=oval;endFill=1;fillColor=#ffffff;entryPerimeter=0;strokeColor=#808080;" parent="1" source="Xxeb_w5k-0lQKxWD1VdJ-44" target="YOsguraXcIjrAALGB2yu-47" edge="1">
      <mxGeometry relative="1" as="geometry">
        <Array as="points">
          <mxPoint x="215" y="370" />
        </Array>
      </mxGeometry>
    </mxCell>
    <mxCell id="YOsguraXcIjrAALGB2yu-47" value="" style="strokeWidth=1;html=1;shape=mxgraph.flowchart.multi-document;whiteSpace=wrap;fillColor=#f5f5f5;verticalAlign=middle;strokeColor=#009900;" parent="1" vertex="1">
      <mxGeometry x="280" y="250" width="110" height="70" as="geometry" />
    </mxCell>
    <mxCell id="Xxeb_w5k-0lQKxWD1VdJ-7" style="edgeStyle=none;rounded=0;orthogonalLoop=1;jettySize=auto;html=1;exitX=1;exitY=0.5;exitDx=0;exitDy=0;entryX=0;entryY=0.5;entryDx=0;entryDy=0;entryPerimeter=0;fontSize=10;startArrow=oval;startFill=1;endArrow=blockThin;endFill=1;fillColor=#ffffff;strokeColor=#FF9933;" parent="1" source="YOsguraXcIjrAALGB2yu-50" target="YOsguraXcIjrAALGB2yu-84" edge="1">
      <mxGeometry relative="1" as="geometry" />
    </mxCell>
    <mxCell id="YOsguraXcIjrAALGB2yu-50" value="" style="verticalLabelPosition=bottom;verticalAlign=middle;html=1;shape=process;whiteSpace=wrap;rounded=1;size=0.14;arcSize=6;fontSize=10;" parent="1" vertex="1">
      <mxGeometry x="460" y="320" width="110" height="60" as="geometry" />
    </mxCell>
    <mxCell id="YOsguraXcIjrAALGB2yu-59" value="EHR" style="text;html=1;strokeColor=none;fillColor=none;align=center;verticalAlign=middle;whiteSpace=wrap;rounded=0;fontSize=10;" parent="1" vertex="1">
      <mxGeometry x="307.5" y="275" width="40" height="20" as="geometry" />
    </mxCell>
    <mxCell id="YOsguraXcIjrAALGB2yu-60" value="Integration&lt;br&gt;Engine" style="text;html=1;strokeColor=none;fillColor=none;align=center;verticalAlign=middle;whiteSpace=wrap;rounded=0;fontSize=10;" parent="1" vertex="1">
      <mxGeometry x="495" y="340" width="40" height="20" as="geometry" />
    </mxCell>
    <mxCell id="YOsguraXcIjrAALGB2yu-64" value="2-way HL7&lt;br&gt;message exchange" style="text;html=1;strokeColor=none;fillColor=none;align=right;verticalAlign=middle;whiteSpace=wrap;rounded=0;fontSize=10;" parent="1" vertex="1">
      <mxGeometry x="380" y="318" width="40" height="60" as="geometry" />
    </mxCell>
    <mxCell id="YOsguraXcIjrAALGB2yu-65" value="1-way HL7&lt;br&gt;message flow" style="text;html=1;strokeColor=none;fillColor=none;align=left;verticalAlign=middle;whiteSpace=wrap;rounded=0;fontSize=10;" parent="1" vertex="1">
      <mxGeometry x="577.34" y="318" width="40" height="60" as="geometry" />
    </mxCell>
    <mxCell id="Xxeb_w5k-0lQKxWD1VdJ-4" style="edgeStyle=none;rounded=0;orthogonalLoop=1;jettySize=auto;html=1;exitX=0.5;exitY=1;exitDx=0;exitDy=0;entryX=0.5;entryY=0;entryDx=0;entryDy=0;entryPerimeter=0;fontSize=10;startArrow=oval;startFill=1;endArrow=blockThin;endFill=1;fillColor=#ffffff;strokeColor=#FF9933;" parent="1" source="YOsguraXcIjrAALGB2yu-66" target="Xxeb_w5k-0lQKxWD1VdJ-3" edge="1">
      <mxGeometry relative="1" as="geometry" />
    </mxCell>
    <mxCell id="YOsguraXcIjrAALGB2yu-66" value="" style="verticalLabelPosition=bottom;verticalAlign=top;html=1;shape=process;whiteSpace=wrap;rounded=1;size=0.14;arcSize=6;fontSize=10;fillColor=#ffe6cc;strokeColor=#d79b00;" parent="1" vertex="1">
      <mxGeometry x="617.34" y="507.5" width="100" height="45" as="geometry" />
    </mxCell>
    <mxCell id="YOsguraXcIjrAALGB2yu-67" value="Message&lt;br&gt;reader" style="text;html=1;fillColor=#ffe6cc;align=center;verticalAlign=middle;whiteSpace=wrap;rounded=0;fontSize=10;" parent="1" vertex="1">
      <mxGeometry x="647.34" y="520" width="40" height="20" as="geometry" />
    </mxCell>
    <mxCell id="Xxeb_w5k-0lQKxWD1VdJ-10" style="edgeStyle=none;rounded=0;orthogonalLoop=1;jettySize=auto;html=1;exitX=0;exitY=0.5;exitDx=0;exitDy=0;entryX=1;entryY=0.5;entryDx=0;entryDy=0;fontSize=10;startArrow=oval;startFill=1;endArrow=blockThin;endFill=1;fillColor=#ffffff;strokeColor=#FF9933;" parent="1" source="YOsguraXcIjrAALGB2yu-68" target="Xxeb_w5k-0lQKxWD1VdJ-9" edge="1">
      <mxGeometry relative="1" as="geometry" />
    </mxCell>
    <mxCell id="YOsguraXcIjrAALGB2yu-68" value="" style="verticalLabelPosition=bottom;verticalAlign=top;html=1;shape=process;whiteSpace=wrap;rounded=1;size=0.14;arcSize=6;fontSize=10;fillColor=#ffe6cc;strokeColor=#d79b00;" parent="1" vertex="1">
      <mxGeometry x="617.34" y="670" width="100" height="40" as="geometry" />
    </mxCell>
    <mxCell id="YOsguraXcIjrAALGB2yu-69" value="Event processor" style="text;html=1;fillColor=#ffe6cc;align=center;verticalAlign=middle;whiteSpace=wrap;rounded=0;fontSize=10;" parent="1" vertex="1">
      <mxGeometry x="647.34" y="680" width="40" height="20" as="geometry" />
    </mxCell>
    <mxCell id="YOsguraXcIjrAALGB2yu-70" value="&lt;font style=&quot;font-size: 12px&quot;&gt;Reporting&lt;br&gt;DB&lt;/font&gt;" style="shape=datastore;whiteSpace=wrap;html=1;fillColor=#f5f5f5;strokeColor=#666666;" parent="1" vertex="1">
      <mxGeometry x="485.00000000000006" y="170" width="60" height="60" as="geometry" />
    </mxCell>
    <mxCell id="YOsguraXcIjrAALGB2yu-72" style="rounded=0;orthogonalLoop=1;jettySize=auto;html=1;entryX=0.5;entryY=0;entryDx=0;entryDy=0;fontSize=10;endArrow=oval;endFill=1;fillColor=#ffffff;startArrow=blockThin;startFill=1;exitX=0;exitY=0.5;exitDx=0;exitDy=0;entryPerimeter=0;edgeStyle=orthogonalEdgeStyle;dashed=1;strokeColor=#808080;" parent="1" source="YOsguraXcIjrAALGB2yu-70" target="YOsguraXcIjrAALGB2yu-47" edge="1">
      <mxGeometry relative="1" as="geometry">
        <mxPoint x="630.0033333333333" y="219.5799999999999" as="sourcePoint" />
        <mxPoint x="570" y="219.5799999999999" as="targetPoint" />
      </mxGeometry>
    </mxCell>
    <mxCell id="YOsguraXcIjrAALGB2yu-73" value="Nightly ETL" style="text;html=1;strokeColor=none;fillColor=none;align=center;verticalAlign=top;whiteSpace=wrap;rounded=0;fontSize=10;" parent="1" vertex="1">
      <mxGeometry x="375" y="180" width="80" height="30" as="geometry" />
    </mxCell>
    <mxCell id="YOsguraXcIjrAALGB2yu-74" style="rounded=0;orthogonalLoop=1;jettySize=auto;html=1;fontSize=10;endArrow=oval;endFill=1;fillColor=#ffffff;startArrow=blockThin;startFill=1;exitX=0;exitY=0.5;exitDx=0;exitDy=0;edgeStyle=orthogonalEdgeStyle;dashed=1;entryX=1;entryY=0.5;entryDx=0;entryDy=0;strokeColor=#FF9933;" parent="1" source="YOsguraXcIjrAALGB2yu-75" target="YOsguraXcIjrAALGB2yu-70" edge="1">
      <mxGeometry relative="1" as="geometry">
        <mxPoint x="1025.0000000000002" y="217.3200000000001" as="sourcePoint" />
        <mxPoint x="710" y="230" as="targetPoint" />
      </mxGeometry>
    </mxCell>
    <mxCell id="Xxeb_w5k-0lQKxWD1VdJ-11" style="edgeStyle=elbowEdgeStyle;rounded=0;orthogonalLoop=1;jettySize=auto;html=1;exitX=1;exitY=0.5;exitDx=0;exitDy=0;fontSize=10;startArrow=oval;startFill=1;endArrow=blockThin;endFill=1;fillColor=#ffffff;elbow=vertical;entryX=1;entryY=0.5;entryDx=0;entryDy=0;entryPerimeter=0;strokeColor=#FF9933;" parent="1" source="YOsguraXcIjrAALGB2yu-75" target="Xxeb_w5k-0lQKxWD1VdJ-3" edge="1">
      <mxGeometry relative="1" as="geometry">
        <mxPoint x="720" y="610" as="targetPoint" />
        <Array as="points">
          <mxPoint x="750" y="440" />
          <mxPoint x="740" y="370" />
          <mxPoint x="760" y="610" />
        </Array>
      </mxGeometry>
    </mxCell>
    <mxCell id="YOsguraXcIjrAALGB2yu-75" value="" style="verticalLabelPosition=bottom;verticalAlign=top;html=1;shape=process;whiteSpace=wrap;rounded=1;size=0.14;arcSize=6;fontSize=10;fillColor=#ffe6cc;strokeColor=#d79b00;" parent="1" vertex="1">
      <mxGeometry x="617.34" y="170" width="100" height="60" as="geometry" />
    </mxCell>
    <mxCell id="YOsguraXcIjrAALGB2yu-76" value="Table&lt;br&gt;reader" style="text;html=1;strokeColor=none;fillColor=none;align=center;verticalAlign=middle;whiteSpace=wrap;rounded=0;fontSize=10;" parent="1" vertex="1">
      <mxGeometry x="647.34" y="190" width="40" height="20" as="geometry" />
    </mxCell>
    <mxCell id="Xxeb_w5k-0lQKxWD1VdJ-8" style="edgeStyle=none;rounded=0;orthogonalLoop=1;jettySize=auto;html=1;exitX=0.5;exitY=1;exitDx=0;exitDy=0;exitPerimeter=0;entryX=0.5;entryY=0;entryDx=0;entryDy=0;fontSize=10;startArrow=oval;startFill=1;endArrow=blockThin;endFill=1;fillColor=#ffffff;strokeColor=#FF9933;" parent="1" source="YOsguraXcIjrAALGB2yu-84" target="YOsguraXcIjrAALGB2yu-1" edge="1">
      <mxGeometry relative="1" as="geometry" />
    </mxCell>
    <mxCell id="YOsguraXcIjrAALGB2yu-84" value="Message queue" style="strokeWidth=2;html=1;shape=mxgraph.flowchart.sequential_data;whiteSpace=wrap;fontSize=9;fillColor=#ffe6cc;align=center;verticalAlign=middle;strokeColor=#d79b00;" parent="1" vertex="1">
      <mxGeometry x="642.34" y="325" width="50" height="50" as="geometry" />
    </mxCell>
    <mxCell id="Xxeb_w5k-0lQKxWD1VdJ-5" style="edgeStyle=none;rounded=0;orthogonalLoop=1;jettySize=auto;html=1;exitX=0.5;exitY=1;exitDx=0;exitDy=0;exitPerimeter=0;entryX=0.5;entryY=0;entryDx=0;entryDy=0;fontSize=10;startArrow=oval;startFill=1;endArrow=blockThin;endFill=1;fillColor=#ffffff;strokeColor=#FF9933;" parent="1" source="Xxeb_w5k-0lQKxWD1VdJ-3" target="YOsguraXcIjrAALGB2yu-68" edge="1">
      <mxGeometry relative="1" as="geometry" />
    </mxCell>
    <mxCell id="Xxeb_w5k-0lQKxWD1VdJ-3" value="Message queue" style="strokeWidth=2;html=1;shape=mxgraph.flowchart.sequential_data;whiteSpace=wrap;fontSize=9;fillColor=#ffe6cc;align=center;verticalAlign=middle;strokeColor=#d79b00;" parent="1" vertex="1">
      <mxGeometry x="642.34" y="590" width="50" height="50" as="geometry" />
    </mxCell>
    <mxCell id="Xxeb_w5k-0lQKxWD1VdJ-37" style="edgeStyle=elbowEdgeStyle;rounded=0;orthogonalLoop=1;jettySize=auto;html=1;exitX=0;exitY=0.5;exitDx=0;exitDy=0;fontSize=10;startArrow=oval;startFill=1;endArrow=blockThin;endFill=1;fillColor=#ffffff;strokeColor=#FF9933;" parent="1" source="Xxeb_w5k-0lQKxWD1VdJ-9" target="PI1jIJRue8a1WFZ3D4rg-30" edge="1">
      <mxGeometry relative="1" as="geometry">
        <mxPoint x="385" y="690" as="targetPoint" />
      </mxGeometry>
    </mxCell>
    <mxCell id="Xxeb_w5k-0lQKxWD1VdJ-9" value="&lt;b style=&quot;font-size: 11px;&quot;&gt;User &lt;br style=&quot;font-size: 11px;&quot;&gt;Data Store&lt;/b&gt;" style="shape=datastore;whiteSpace=wrap;html=1;fontSize=11;fillColor=#ffe6cc;strokeColor=#d79b00;spacingTop=-6;" parent="1" vertex="1">
      <mxGeometry x="485" y="660" width="60" height="60" as="geometry" />
    </mxCell>
    <mxCell id="Xxeb_w5k-0lQKxWD1VdJ-18" style="edgeStyle=elbowEdgeStyle;rounded=0;orthogonalLoop=1;jettySize=auto;html=1;exitX=1;exitY=0.5;exitDx=0;exitDy=0;exitPerimeter=0;entryX=0;entryY=0.75;entryDx=0;entryDy=0;fontSize=10;startArrow=blockThin;startFill=1;endArrow=blockThin;endFill=1;fillColor=#ffffff;strokeColor=#808080;" parent="1" source="Xxeb_w5k-0lQKxWD1VdJ-15" target="YOsguraXcIjrAALGB2yu-50" edge="1">
      <mxGeometry relative="1" as="geometry" />
    </mxCell>
    <mxCell id="Xxeb_w5k-0lQKxWD1VdJ-15" value="" style="strokeWidth=1;html=1;shape=mxgraph.flowchart.multi-document;whiteSpace=wrap;fillColor=#f5f5f5;verticalAlign=middle;strokeColor=#009900;" parent="1" vertex="1">
      <mxGeometry x="280" y="380" width="110" height="70" as="geometry" />
    </mxCell>
    <mxCell id="Xxeb_w5k-0lQKxWD1VdJ-16" value="Other live clinical systems" style="text;html=1;strokeColor=none;fillColor=none;align=center;verticalAlign=middle;whiteSpace=wrap;rounded=0;fontSize=10;" parent="1" vertex="1">
      <mxGeometry x="290" y="405" width="75" height="20" as="geometry" />
    </mxCell>
    <mxCell id="Xxeb_w5k-0lQKxWD1VdJ-38" style="edgeStyle=elbowEdgeStyle;rounded=0;orthogonalLoop=1;jettySize=auto;html=1;fontSize=10;startArrow=oval;startFill=1;endArrow=blockThin;endFill=1;fillColor=#ffffff;strokeWidth=2;strokeColor=#009900;" parent="1" edge="1">
      <mxGeometry relative="1" as="geometry">
        <mxPoint x="340" y="635" as="sourcePoint" />
        <mxPoint x="340" y="555" as="targetPoint" />
        <Array as="points">
          <mxPoint x="340" y="575" />
        </Array>
      </mxGeometry>
    </mxCell>
    <mxCell id="Xxeb_w5k-0lQKxWD1VdJ-21" value="&lt;b&gt;User Facing&lt;br&gt;Emails&lt;/b&gt;" style="strokeWidth=1;html=1;shape=mxgraph.flowchart.display;whiteSpace=wrap;fontSize=10;fillColor=#d5e8d4;align=center;verticalAlign=middle;flipV=1;flipH=1;strokeColor=#82b366;" parent="1" vertex="1">
      <mxGeometry x="307.5" y="490" width="72.5" height="60" as="geometry" />
    </mxCell>
    <mxCell id="Xxeb_w5k-0lQKxWD1VdJ-45" style="rounded=0;orthogonalLoop=1;jettySize=auto;html=1;fontSize=10;startArrow=oval;startFill=1;endArrow=blockThin;endFill=1;fillColor=#ffffff;strokeWidth=2;strokeColor=#FF9933;" parent="1" edge="1">
      <mxGeometry relative="1" as="geometry">
        <mxPoint x="215" y="640" as="targetPoint" />
        <mxPoint x="215" y="560" as="sourcePoint" />
      </mxGeometry>
    </mxCell>
    <mxCell id="Xxeb_w5k-0lQKxWD1VdJ-30" value="" style="shape=umlActor;verticalLabelPosition=bottom;verticalAlign=top;html=1;fontSize=10;strokeWidth=1;fillColor=#d5e8d4;strokeColor=#82b366;" parent="1" vertex="1">
      <mxGeometry x="200" y="495" width="30" height="60" as="geometry" />
    </mxCell>
    <mxCell id="Xxeb_w5k-0lQKxWD1VdJ-31" value="" style="shape=umlActor;verticalLabelPosition=bottom;verticalAlign=top;html=1;fontSize=10;strokeWidth=1;fillColor=#d5e8d4;strokeColor=#82b366;" parent="1" vertex="1">
      <mxGeometry x="220" y="490" width="30" height="60" as="geometry" />
    </mxCell>
    <mxCell id="Xxeb_w5k-0lQKxWD1VdJ-32" value="" style="shape=umlActor;verticalLabelPosition=bottom;verticalAlign=top;html=1;fontSize=10;strokeWidth=1;fillColor=#d5e8d4;strokeColor=#82b366;" parent="1" vertex="1">
      <mxGeometry x="180" y="500" width="30" height="60" as="geometry" />
    </mxCell>
    <mxCell id="Xxeb_w5k-0lQKxWD1VdJ-33" value="Development&lt;br&gt;team" style="shape=umlActor;verticalLabelPosition=bottom;verticalAlign=top;html=1;fontSize=10;strokeWidth=1;fillColor=#ffe6cc;strokeColor=#d79b00;fontStyle=1" parent="1" vertex="1">
      <mxGeometry x="200" y="655" width="30" height="60" as="geometry" />
    </mxCell>
    <mxCell id="Xxeb_w5k-0lQKxWD1VdJ-34" value="" style="shape=umlActor;verticalLabelPosition=bottom;verticalAlign=top;html=1;fontSize=10;strokeWidth=1;fillColor=#ffe6cc;strokeColor=#d79b00;" parent="1" vertex="1">
      <mxGeometry x="220" y="650" width="30" height="60" as="geometry" />
    </mxCell>
    <mxCell id="Xxeb_w5k-0lQKxWD1VdJ-35" value="" style="shape=umlActor;verticalLabelPosition=bottom;verticalAlign=top;html=1;fontSize=10;strokeWidth=1;fillColor=#ffe6cc;strokeColor=#d79b00;" parent="1" vertex="1">
      <mxGeometry x="180" y="660" width="30" height="60" as="geometry" />
    </mxCell>
    <mxCell id="Xxeb_w5k-0lQKxWD1VdJ-44" value="&lt;meta charset=&quot;utf-8&quot;&gt;&lt;span style=&quot;color: rgb(0, 0, 0); font-family: helvetica; font-size: 10px; font-style: normal; letter-spacing: normal; text-indent: 0px; text-transform: none; word-spacing: 0px; background-color: rgb(248, 249, 250); display: inline; float: none;&quot;&gt;Clinical&lt;/span&gt;&lt;br style=&quot;color: rgb(0, 0, 0); font-family: helvetica; font-size: 10px; font-style: normal; letter-spacing: normal; text-indent: 0px; text-transform: none; word-spacing: 0px; background-color: rgb(248, 249, 250);&quot;&gt;&lt;span style=&quot;color: rgb(0, 0, 0); font-family: helvetica; font-size: 10px; font-style: normal; letter-spacing: normal; text-indent: 0px; text-transform: none; word-spacing: 0px; background-color: rgb(248, 249, 250); display: inline; float: none;&quot;&gt;team&lt;/span&gt;" style="text;whiteSpace=wrap;html=1;fontSize=10;align=center;fontStyle=1" parent="1" vertex="1">
      <mxGeometry x="185" y="450" width="60" height="40" as="geometry" />
    </mxCell>
    <mxCell id="Xxeb_w5k-0lQKxWD1VdJ-52" value="&lt;b&gt;&lt;font color=&quot;#003366&quot;&gt;EMAP&lt;/font&gt;&lt;/b&gt;&lt;br&gt;&lt;font color=&quot;#003366&quot;&gt;A &lt;i&gt;live&lt;/i&gt; data platform &lt;br&gt;for &lt;i&gt;integrated &lt;/i&gt;&lt;/font&gt;&lt;br&gt;&lt;font color=&quot;#ff9933&quot;&gt;development&lt;/font&gt; &lt;font color=&quot;#003366&quot;&gt;and&lt;/font&gt; &lt;font color=&quot;#009900&quot;&gt;deployment&lt;/font&gt;" style="text;html=1;strokeColor=none;fillColor=none;align=left;verticalAlign=top;whiteSpace=wrap;rounded=0;fontSize=16;" parent="1" vertex="1">
      <mxGeometry x="430" y="475" width="140" height="110" as="geometry" />
    </mxCell>
    <mxCell id="Xxeb_w5k-0lQKxWD1VdJ-55" value="&lt;font color=&quot;#1b66b2&quot;&gt;Offline&lt;/font&gt; data flows" style="text;html=1;strokeColor=none;fillColor=none;align=left;verticalAlign=top;whiteSpace=wrap;rounded=0;fontSize=12;fontStyle=1" parent="1" vertex="1">
      <mxGeometry x="215" y="160" width="160" height="30" as="geometry" />
    </mxCell>
    <mxCell id="Xxeb_w5k-0lQKxWD1VdJ-57" value="&lt;font color=&quot;#ff9933&quot;&gt;Online&lt;/font&gt; data flows" style="text;html=1;strokeColor=none;fillColor=none;align=left;verticalAlign=top;whiteSpace=wrap;rounded=0;fontSize=12;fontStyle=1" parent="1" vertex="1">
      <mxGeometry x="155" y="240" width="160" height="30" as="geometry" />
    </mxCell>
    <mxCell id="Xxeb_w5k-0lQKxWD1VdJ-64" value="&lt;font style=&quot;font-size: 10px&quot;&gt;Existing&lt;br&gt;&lt;/font&gt;" style="text;html=1;strokeColor=none;fillColor=none;align=left;verticalAlign=middle;whiteSpace=wrap;rounded=0;fontSize=12;" parent="1" vertex="1">
      <mxGeometry x="510" y="430" width="60" height="20" as="geometry" />
    </mxCell>
    <mxCell id="Xxeb_w5k-0lQKxWD1VdJ-63" style="edgeStyle=none;rounded=0;orthogonalLoop=1;jettySize=auto;html=1;fontSize=10;startArrow=oval;startFill=1;endArrow=blockThin;endFill=1;fillColor=#ffffff;strokeColor=#808080;" parent="1" edge="1">
      <mxGeometry x="460" y="404.65" as="geometry">
        <mxPoint x="510" y="450" as="sourcePoint" />
        <mxPoint x="570" y="450" as="targetPoint" />
      </mxGeometry>
    </mxCell>
    <mxCell id="Xxeb_w5k-0lQKxWD1VdJ-65" value="&lt;font style=&quot;font-size: 10px&quot;&gt;EMAP&lt;br&gt;&lt;/font&gt;" style="text;html=1;strokeColor=none;fillColor=none;align=left;verticalAlign=middle;whiteSpace=wrap;rounded=0;fontSize=12;" parent="1" vertex="1">
      <mxGeometry x="510" y="404.65" width="60" height="20" as="geometry" />
    </mxCell>
    <mxCell id="Xxeb_w5k-0lQKxWD1VdJ-66" style="edgeStyle=none;rounded=0;orthogonalLoop=1;jettySize=auto;html=1;fontSize=10;startArrow=oval;startFill=1;endArrow=blockThin;endFill=1;fillColor=#ffffff;strokeColor=#FF9933;" parent="1" edge="1">
      <mxGeometry x="460" y="404.65" as="geometry">
        <mxPoint x="510.0000000000002" y="424.65" as="sourcePoint" />
        <mxPoint x="570.0000000000002" y="424.65" as="targetPoint" />
      </mxGeometry>
    </mxCell>
    <mxCell id="Xxeb_w5k-0lQKxWD1VdJ-67" value="&lt;font style=&quot;font-size: 10px&quot;&gt;Data flows&lt;br&gt;&lt;/font&gt;" style="text;html=1;strokeColor=none;fillColor=none;align=right;verticalAlign=middle;whiteSpace=wrap;rounded=0;fontSize=12;" parent="1" vertex="1">
      <mxGeometry x="460" y="425.34000000000003" width="40" height="20" as="geometry" />
    </mxCell>
    <mxCell id="Xxeb_w5k-0lQKxWD1VdJ-70" value="New HL7 interfaces" style="text;html=1;strokeColor=none;fillColor=none;align=left;verticalAlign=top;whiteSpace=wrap;rounded=0;fontSize=10;" parent="1" vertex="1">
      <mxGeometry x="495" y="265" width="40" height="35" as="geometry" />
    </mxCell>
    <mxCell id="Xxeb_w5k-0lQKxWD1VdJ-71" value="Historical&lt;br&gt;data&lt;br&gt;&lt;div&gt;&lt;span&gt;loads&lt;/span&gt;&lt;/div&gt;" style="text;html=1;strokeColor=none;fillColor=none;align=left;verticalAlign=top;whiteSpace=wrap;rounded=0;fontSize=10;" parent="1" vertex="1">
      <mxGeometry x="740" y="615.3399999999999" width="50" height="54.66" as="geometry" />
    </mxCell>
    <mxCell id="PI1jIJRue8a1WFZ3D4rg-17" value="1" style="text;html=1;strokeColor=none;fillColor=none;align=center;verticalAlign=middle;whiteSpace=wrap;rounded=0;fontSize=11;fontFamily=Courier New;fontStyle=1" parent="1" vertex="1">
      <mxGeometry x="687.34" y="390" width="20" height="25" as="geometry" />
    </mxCell>
    <mxCell id="PI1jIJRue8a1WFZ3D4rg-18" value="2" style="text;html=1;strokeColor=none;fillColor=none;align=center;verticalAlign=middle;whiteSpace=wrap;rounded=0;fontSize=11;fontFamily=Courier New;fontStyle=1" parent="1" vertex="1">
      <mxGeometry x="700" y="487.5" width="20" height="25" as="geometry" />
    </mxCell>
    <mxCell id="PI1jIJRue8a1WFZ3D4rg-19" value="3" style="text;html=1;strokeColor=none;fillColor=none;align=center;verticalAlign=middle;whiteSpace=wrap;rounded=0;fontSize=11;fontFamily=Courier New;fontStyle=1" parent="1" vertex="1">
      <mxGeometry x="700" y="647.5" width="20" height="25" as="geometry" />
    </mxCell>
    <mxCell id="PI1jIJRue8a1WFZ3D4rg-20" value="4" style="text;html=1;strokeColor=none;fillColor=none;align=center;verticalAlign=middle;whiteSpace=wrap;rounded=0;fontSize=11;fontFamily=Courier New;fontStyle=1" parent="1" vertex="1">
      <mxGeometry x="535" y="647.5" width="20" height="25" as="geometry" />
    </mxCell>
    <mxCell id="PI1jIJRue8a1WFZ3D4rg-21" value="5" style="text;html=1;strokeColor=none;fillColor=none;align=center;verticalAlign=middle;whiteSpace=wrap;rounded=0;fontSize=11;fontFamily=Courier New;fontStyle=1" parent="1" vertex="1">
      <mxGeometry x="700" y="150" width="20" height="25" as="geometry" />
    </mxCell>
    <mxCell id="PI1jIJRue8a1WFZ3D4rg-22" value="5" style="text;html=1;strokeColor=none;fillColor=none;align=left;verticalAlign=middle;whiteSpace=wrap;rounded=0;fontSize=11;fontFamily=Courier New;fontStyle=1" parent="1" vertex="1">
      <mxGeometry x="377.5" y="646" width="20" height="25" as="geometry" />
    </mxCell>
    <mxCell id="PI1jIJRue8a1WFZ3D4rg-30" value="" style="verticalLabelPosition=bottom;verticalAlign=top;html=1;shape=mxgraph.basic.partConcEllipse;startAngle=0.903048623289098;endAngle=0.5987157716443733;arcWidth=0.33;shadow=0;sketch=0;fontFamily=Courier New;fontSize=11;strokeColor=#d79b00;strokeWidth=1;fillColor=#ffe6cc;gradientDirection=west;opacity=80;" parent="1" vertex="1">
      <mxGeometry x="292.5" y="647.5" width="85" height="85" as="geometry" />
    </mxCell>
    <mxCell id="PI1jIJRue8a1WFZ3D4rg-33" value="" style="ellipse;shape=doubleEllipse;whiteSpace=wrap;html=1;aspect=fixed;shadow=0;sketch=0;fontFamily=Courier New;fontSize=11;strokeColor=#82b366;strokeWidth=1;fillColor=#d5e8d4;gradientDirection=west;align=center;verticalAlign=middle;opacity=80;" parent="1" vertex="1">
      <mxGeometry x="310" y="665" width="50" height="50" as="geometry" />
    </mxCell>
    <mxCell id="PI1jIJRue8a1WFZ3D4rg-35" value="ED predictor" style="text;html=1;strokeColor=none;fillColor=none;align=center;verticalAlign=middle;whiteSpace=wrap;rounded=0;fontSize=10;fontStyle=1" parent="1" vertex="1">
      <mxGeometry x="318.75" y="680" width="32.5" height="20" as="geometry" />
    </mxCell>
    <mxCell id="PI1jIJRue8a1WFZ3D4rg-37" style="edgeStyle=none;rounded=0;orthogonalLoop=1;jettySize=auto;html=1;fontSize=10;startArrow=blockThin;startFill=1;endArrow=oval;endFill=1;fillColor=#ffffff;strokeWidth=2;strokeColor=#FF9933;" parent="1" edge="1">
      <mxGeometry relative="1" as="geometry">
        <mxPoint x="303" y="689.83" as="sourcePoint" />
        <mxPoint x="253" y="689.83" as="targetPoint" />
      </mxGeometry>
    </mxCell>
    <mxCell id="PI1jIJRue8a1WFZ3D4rg-2" value="" style="ellipse;whiteSpace=wrap;html=1;aspect=fixed;shadow=0;sketch=0;fontSize=20;fontColor=#003366;strokeWidth=2;gradientColor=none;gradientDirection=west;align=left;verticalAlign=bottom;fillColor=#FFFFFF;strokeColor=none;opacity=50;" parent="1" vertex="1">
      <mxGeometry x="230" y="550" width="95.99999999999999" height="95.99999999999999" as="geometry" />
    </mxCell>
    <mxCell id="PI1jIJRue8a1WFZ3D4rg-3" value="" style="verticalLabelPosition=bottom;verticalAlign=top;html=1;shape=mxgraph.basic.pie;startAngle=0.3208718622987063;endAngle=0.49675239075581273;shadow=0;dashed=1;dashPattern=1 4;sketch=0;fontSize=20;strokeWidth=0;gradientDirection=west;opacity=50;strokeColor=none;fillColor=#FF9933;" parent="1" vertex="1">
      <mxGeometry x="239.76225352112675" y="559.7622535211268" width="75.11661971830985" height="75.11661971830985" as="geometry" />
    </mxCell>
    <mxCell id="PI1jIJRue8a1WFZ3D4rg-4" value="" style="verticalLabelPosition=bottom;verticalAlign=top;html=1;shape=mxgraph.basic.pie;startAngle=0.003214814078137548;endAngle=0.15685980648018583;shadow=0;dashed=1;dashPattern=1 4;sketch=0;fontSize=20;strokeColor=#d79b00;strokeWidth=0;gradientDirection=west;opacity=50;fillColor=#FFCC99;" parent="1" vertex="1">
      <mxGeometry x="240.8912676056338" y="560.8845070422535" width="72.87211267605635" height="72.87211267605635" as="geometry" />
    </mxCell>
    <mxCell id="PI1jIJRue8a1WFZ3D4rg-5" value="" style="verticalLabelPosition=bottom;verticalAlign=top;html=1;shape=mxgraph.basic.pie;startAngle=0.1637078753180593;endAngle=0.3137613514934125;shadow=0;dashed=1;dashPattern=1 4;sketch=0;fontSize=20;strokeColor=#d79b00;strokeWidth=0;gradientDirection=west;opacity=50;fillColor=#FFB366;" parent="1" vertex="1">
      <mxGeometry x="230" y="550" width="94.64788732394368" height="94.64788732394368" as="geometry" />
    </mxCell>
    <mxCell id="PI1jIJRue8a1WFZ3D4rg-6" value="" style="verticalLabelPosition=bottom;verticalAlign=top;html=1;shape=mxgraph.basic.pie;startAngle=0.8288312307947443;endAngle=0.9952267833287348;shadow=0;dashed=1;dashPattern=1 4;sketch=0;fontSize=20;strokeWidth=0;gradientDirection=west;opacity=50;strokeColor=none;fillColor=#66CC00;" parent="1" vertex="1">
      <mxGeometry x="243.5211267605634" y="564.2647887323944" width="66.11154929577465" height="66.11154929577465" as="geometry" />
    </mxCell>
    <mxCell id="PI1jIJRue8a1WFZ3D4rg-7" value="" style="verticalLabelPosition=bottom;verticalAlign=top;html=1;shape=mxgraph.basic.pie;startAngle=0.5016407144851296;endAngle=0.6537267924846636;shadow=0;dashed=1;dashPattern=1 4;sketch=0;fontSize=20;strokeColor=#d79b00;strokeWidth=0;gradientDirection=west;opacity=50;fillColor=#CCFF99;" parent="1" vertex="1">
      <mxGeometry x="243.5211267605634" y="564.2647887323944" width="66.11154929577465" height="66.11154929577465" as="geometry" />
    </mxCell>
    <mxCell id="PI1jIJRue8a1WFZ3D4rg-8" value="" style="verticalLabelPosition=bottom;verticalAlign=top;html=1;shape=mxgraph.basic.pie;startAngle=0.6595543389412404;endAngle=0.8216792566665198;shadow=0;dashed=1;dashPattern=1 4;sketch=0;fontSize=20;strokeColor=#d79b00;strokeWidth=0;gradientDirection=west;opacity=50;fillColor=#99FF33;" parent="1" vertex="1">
      <mxGeometry x="230" y="550.743661971831" width="93.15718309859155" height="93.15718309859155" as="geometry" />
    </mxCell>
    <mxCell id="Xxeb_w5k-0lQKxWD1VdJ-40" value="Iterative development cycle with &lt;br style=&quot;font-size: 11px;&quot;&gt;user input" style="text;html=1;strokeColor=none;fillColor=none;align=right;verticalAlign=middle;whiteSpace=wrap;rounded=0;fontSize=11;" parent="1" vertex="1">
      <mxGeometry x="235" y="587.32" width="75" height="20" as="geometry" />
    </mxCell>
    <mxCell id="PI1jIJRue8a1WFZ3D4rg-38" value="EMAP development environment" style="text;html=1;strokeColor=none;fillColor=none;align=left;verticalAlign=middle;whiteSpace=wrap;rounded=0;fontSize=10;fontStyle=1" parent="1" vertex="1">
      <mxGeometry x="377.5" y="700" width="32.5" height="20" as="geometry" />
    </mxCell>
    <mxCell id="zz4aHNm8vJq9On_wiSXI-1" value="Secure server deployed in a UCLH Generic Application Environment&amp;nbsp;" style="text;html=1;strokeColor=none;fillColor=none;align=left;verticalAlign=middle;whiteSpace=wrap;rounded=0;fontSize=10;fontStyle=1" parent="1" vertex="1">
      <mxGeometry x="351.25" y="585" width="32.5" height="20" as="geometry" />
    </mxCell>
  </root>
</mxGraphModel>
